<svg width="288" height="288" viewBox="0 0 288 288" fill="none" xmlns="http://www.w3.org/2000/svg">
<mask id="mask0_9_261" style="mask-type:alpha" maskUnits="userSpaceOnUse" x="0" y="0" width="288" height="288">
<circle cx="144" cy="144" r="144" fill="#FF9800"/>
</mask>
<g mask="url(#mask0_9_261)">
<g filter="url(#filter0_i_9_261)">
<path d="M194.524 75.3873C216.055 91.429 230 117.086 230 146C230 194.601 190.601 234 142 234C93.3989 234 54 194.601 54 146C54 117.062 67.9681 91.386 89.5299 75.347L73.5 54.0025C71 50.7025 71.7 46.0026 75 43.5027C78.3 41.0028 83 41.7027 85.5 45.0027L102.338 67.4237C114.256 61.3959 127.731 58 142 58C156.269 58 169.744 61.3959 181.662 67.4237L198.5 45.0027C201 41.7027 205.7 41.0028 209 43.5027C212.3 46.0026 213 50.7025 210.5 54.0025L194.524 75.3873Z" fill="url(#paint0_linear_9_261)"/>
</g>
<path d="M230 146C230 157.556 227.724 168.999 223.301 179.676C218.879 190.353 212.397 200.054 204.225 208.225C196.054 216.397 186.353 222.879 175.676 227.301C164.999 231.724 153.556 234 142 234C130.444 234 119.001 231.724 108.324 227.301C97.6472 222.879 87.9462 216.397 79.7746 208.225C71.603 200.054 65.121 190.353 60.6986 179.676C56.2762 168.999 54 157.556 54 146L142 146H230Z" fill="#FFC400"/>
<g filter="url(#filter1_ddddii_9_261)">
<path d="M228.917 132.234C230.907 144.798 230.149 157.644 226.696 169.887C223.243 182.13 217.177 193.479 208.916 203.151C200.654 212.824 190.394 220.591 178.842 225.917C167.29 231.242 154.721 234 142 234C129.279 234 116.71 231.242 105.158 225.917C93.6058 220.591 83.3456 212.824 75.0843 203.151C66.8229 193.479 60.7568 182.13 57.3039 169.887C53.8511 157.644 53.0935 144.798 55.0834 132.234L110.087 140.946C131.231 144.294 152.769 144.294 173.913 140.946L228.917 132.234Z" fill="url(#paint1_linear_9_261)"/>
</g>
<g filter="url(#filter2_dddddddi_9_261)">
<path d="M216.06 134.27L191.586 207.775C190.138 212.125 184.544 213.309 181.457 209.919L142 166.585L102.543 209.919C99.4561 213.309 93.8619 212.125 92.4136 207.775L67.9397 134.27L97.3369 138.926L105.419 170.96L129.796 143.092C137.925 143.579 146.075 143.579 154.204 143.092L178.581 170.96L186.663 138.926L216.06 134.27Z" fill="url(#paint2_radial_9_261)"/>
</g>
</g>
<defs>
<filter id="filter0_i_9_261" x="54" y="42" width="176" height="192" filterUnits="userSpaceOnUse" color-interpolation-filters="sRGB">
<feFlood flood-opacity="0" result="BackgroundImageFix"/>
<feBlend mode="normal" in="SourceGraphic" in2="BackgroundImageFix" result="shape"/>
<feColorMatrix in="SourceAlpha" type="matrix" values="0 0 0 0 0 0 0 0 0 0 0 0 0 0 0 0 0 0 127 0" result="hardAlpha"/>
<feOffset dy="2"/>
<feComposite in2="hardAlpha" operator="arithmetic" k2="-1" k3="1"/>
<feColorMatrix type="matrix" values="0 0 0 0 1 0 0 0 0 1 0 0 0 0 1 0 0 0 0.25 0"/>
<feBlend mode="normal" in2="shape" result="effect1_innerShadow_9_261"/>
</filter>
<filter id="filter1_ddddii_9_261" x="36.131" y="132.234" width="211.738" height="141.972" filterUnits="userSpaceOnUse" color-interpolation-filters="sRGB">
<feFlood flood-opacity="0" result="BackgroundImageFix"/>
<feColorMatrix in="SourceAlpha" type="matrix" values="0 0 0 0 0 0 0 0 0 0 0 0 0 0 0 0 0 0 127 0" result="hardAlpha"/>
<feOffset dy="2.76726"/>
<feGaussianBlur stdDeviation="1.1069"/>
<feColorMatrix type="matrix" values="0 0 0 0 0 0 0 0 0 0 0 0 0 0 0 0 0 0 0.0253031 0"/>
<feBlend mode="normal" in2="BackgroundImageFix" result="effect1_dropShadow_9_261"/>
<feColorMatrix in="SourceAlpha" type="matrix" values="0 0 0 0 0 0 0 0 0 0 0 0 0 0 0 0 0 0 127 0" result="hardAlpha"/>
<feOffset dy="6.6501"/>
<feGaussianBlur stdDeviation="2.66004"/>
<feColorMatrix type="matrix" values="0 0 0 0 0 0 0 0 0 0 0 0 0 0 0 0 0 0 0.0363503 0"/>
<feBlend mode="normal" in2="effect1_dropShadow_9_261" result="effect2_dropShadow_9_261"/>
<feColorMatrix in="SourceAlpha" type="matrix" values="0 0 0 0 0 0 0 0 0 0 0 0 0 0 0 0 0 0 127 0" result="hardAlpha"/>
<feOffset dy="12.5216"/>
<feGaussianBlur stdDeviation="5.00862"/>
<feColorMatrix type="matrix" values="0 0 0 0 0 0 0 0 0 0 0 0 0 0 0 0 0 0 0.045 0"/>
<feBlend mode="normal" in2="effect2_dropShadow_9_261" result="effect3_dropShadow_9_261"/>
<feColorMatrix in="SourceAlpha" type="matrix" values="0 0 0 0 0 0 0 0 0 0 0 0 0 0 0 0 0 0 127 0" result="hardAlpha"/>
<feOffset dy="22.3363"/>
<feGaussianBlur stdDeviation="8.93452"/>
<feColorMatrix type="matrix" values="0 0 0 0 0 0 0 0 0 0 0 0 0 0 0 0 0 0 0.0536497 0"/>
<feBlend mode="normal" in2="effect3_dropShadow_9_261" result="effect4_dropShadow_9_261"/>
<feBlend mode="normal" in="SourceGraphic" in2="effect4_dropShadow_9_261" result="shape"/>
<feColorMatrix in="SourceAlpha" type="matrix" values="0 0 0 0 0 0 0 0 0 0 0 0 0 0 0 0 0 0 127 0" result="hardAlpha"/>
<feOffset dy="2"/>
<feComposite in2="hardAlpha" operator="arithmetic" k2="-1" k3="1"/>
<feColorMatrix type="matrix" values="0 0 0 0 1 0 0 0 0 1 0 0 0 0 1 0 0 0 0.25 0"/>
<feBlend mode="normal" in2="shape" result="effect5_innerShadow_9_261"/>
<feColorMatrix in="SourceAlpha" type="matrix" values="0 0 0 0 0 0 0 0 0 0 0 0 0 0 0 0 0 0 127 0" result="hardAlpha"/>
<feOffset dy="-2"/>
<feComposite in2="hardAlpha" operator="arithmetic" k2="-1" k3="1"/>
<feColorMatrix type="matrix" values="0 0 0 0 0.615686 0 0 0 0 0.211765 0 0 0 0 0 0 0 0 0.25 0"/>
<feBlend mode="normal" in2="effect5_innerShadow_9_261" result="effect6_innerShadow_9_261"/>
</filter>
<filter id="filter2_dddddddi_9_261" x="11.9397" y="124.27" width="260.12" height="189.612" filterUnits="userSpaceOnUse" color-interpolation-filters="sRGB">
<feFlood flood-opacity="0" result="BackgroundImageFix"/>
<feColorMatrix in="SourceAlpha" type="matrix" values="0 0 0 0 0 0 0 0 0 0 0 0 0 0 0 0 0 0 127 0" result="hardAlpha"/>
<feOffset dy="1.27294"/>
<feGaussianBlur stdDeviation="0.774832"/>
<feColorMatrix type="matrix" values="0 0 0 0 0.615686 0 0 0 0 0.211765 0 0 0 0 0 0 0 0 0.0421718 0"/>
<feBlend mode="normal" in2="BackgroundImageFix" result="effect1_dropShadow_9_261"/>
<feColorMatrix in="SourceAlpha" type="matrix" values="0 0 0 0 0 0 0 0 0 0 0 0 0 0 0 0 0 0 127 0" result="hardAlpha"/>
<feOffset dy="3.05905"/>
<feGaussianBlur stdDeviation="1.86203"/>
<feColorMatrix type="matrix" values="0 0 0 0 0.615686 0 0 0 0 0.211765 0 0 0 0 0 0 0 0 0.0605839 0"/>
<feBlend mode="normal" in2="effect1_dropShadow_9_261" result="effect2_dropShadow_9_261"/>
<feColorMatrix in="SourceAlpha" type="matrix" values="0 0 0 0 0 0 0 0 0 0 0 0 0 0 0 0 0 0 127 0" result="hardAlpha"/>
<feOffset dy="5.75991"/>
<feGaussianBlur stdDeviation="3.50603"/>
<feColorMatrix type="matrix" values="0 0 0 0 0.615686 0 0 0 0 0.211765 0 0 0 0 0 0 0 0 0.075 0"/>
<feBlend mode="normal" in2="effect2_dropShadow_9_261" result="effect3_dropShadow_9_261"/>
<feColorMatrix in="SourceAlpha" type="matrix" values="0 0 0 0 0 0 0 0 0 0 0 0 0 0 0 0 0 0 127 0" result="hardAlpha"/>
<feOffset dy="10.2747"/>
<feGaussianBlur stdDeviation="6.25417"/>
<feColorMatrix type="matrix" values="0 0 0 0 0.615686 0 0 0 0 0.211765 0 0 0 0 0 0 0 0 0.0894161 0"/>
<feBlend mode="normal" in2="effect3_dropShadow_9_261" result="effect4_dropShadow_9_261"/>
<feColorMatrix in="SourceAlpha" type="matrix" values="0 0 0 0 0 0 0 0 0 0 0 0 0 0 0 0 0 0 127 0" result="hardAlpha"/>
<feOffset dy="19.2177"/>
<feGaussianBlur stdDeviation="11.6977"/>
<feColorMatrix type="matrix" values="0 0 0 0 0.615686 0 0 0 0 0.211765 0 0 0 0 0 0 0 0 0.107828 0"/>
<feBlend mode="normal" in2="effect4_dropShadow_9_261" result="effect5_dropShadow_9_261"/>
<feColorMatrix in="SourceAlpha" type="matrix" values="0 0 0 0 0 0 0 0 0 0 0 0 0 0 0 0 0 0 127 0" result="hardAlpha"/>
<feOffset dy="46"/>
<feGaussianBlur stdDeviation="28"/>
<feColorMatrix type="matrix" values="0 0 0 0 0.615686 0 0 0 0 0.211765 0 0 0 0 0 0 0 0 0.15 0"/>
<feBlend mode="normal" in2="effect5_dropShadow_9_261" result="effect6_dropShadow_9_261"/>
<feColorMatrix in="SourceAlpha" type="matrix" values="0 0 0 0 0 0 0 0 0 0 0 0 0 0 0 0 0 0 127 0" result="hardAlpha"/>
<feOffset dy="2"/>
<feComposite in2="hardAlpha" operator="out"/>
<feColorMatrix type="matrix" values="0 0 0 0 0.615686 0 0 0 0 0.211765 0 0 0 0 0 0 0 0 0.25 0"/>
<feBlend mode="normal" in2="effect6_dropShadow_9_261" result="effect7_dropShadow_9_261"/>
<feBlend mode="normal" in="SourceGraphic" in2="effect7_dropShadow_9_261" result="shape"/>
<feColorMatrix in="SourceAlpha" type="matrix" values="0 0 0 0 0 0 0 0 0 0 0 0 0 0 0 0 0 0 127 0" result="hardAlpha"/>
<feOffset dy="2"/>
<feComposite in2="hardAlpha" operator="arithmetic" k2="-1" k3="1"/>
<feColorMatrix type="matrix" values="0 0 0 0 1 0 0 0 0 1 0 0 0 0 1 0 0 0 0.25 0"/>
<feBlend mode="normal" in2="shape" result="effect8_innerShadow_9_261"/>
</filter>
<linearGradient id="paint0_linear_9_261" x1="142" y1="42" x2="142" y2="186.138" gradientUnits="userSpaceOnUse">
<stop offset="0.293554" stop-color="#3DDB85"/>
<stop offset="1" stop-color="#28AAB3"/>
</linearGradient>
<linearGradient id="paint1_linear_9_261" x1="83.5637" y1="132.234" x2="178.259" y2="234" gradientUnits="userSpaceOnUse">
<stop stop-color="#FFC400"/>
<stop offset="1" stop-color="#FF8A00"/>
</linearGradient>
<radialGradient id="paint2_radial_9_261" cx="0" cy="0" r="1" gradientUnits="userSpaceOnUse" gradientTransform="translate(142 92.5966) rotate(90) scale(119.285 469.102)">
<stop stop-color="#FAFAFA" stop-opacity="0.86"/>
<stop offset="1" stop-color="#FAFAFA"/>
</radialGradient>
</defs>
</svg>
